<?xml version="1.0" standalone="no"?><!DOCTYPE svg PUBLIC "-//W3C//DTD SVG 1.1//EN" "http://www.w3.org/Graphics/SVG/1.1/DTD/svg11.dtd"><svg t="1764764810716" class="icon" viewBox="0 0 1080 1024" version="1.1" xmlns="http://www.w3.org/2000/svg" p-id="5060" width="67.5" height="64" xmlns:xlink="http://www.w3.org/1999/xlink"><path d="M772.05769 128.124941H308.817387v63.828517c0.113776 13.795379-7.224797 26.566772-19.199754 33.507128a38.797726 38.797726 0 0 1-38.769283 0 38.314177 38.314177 0 0 1-19.228198-33.507128V128.124941H103.166682a25.770337 25.770337 0 0 0-25.941002 25.485896v204.882716h926.423718V153.610837a25.656561 25.656561 0 0 0-25.941002-25.457452h-128.45347v63.828517c0.113776 13.795379-7.224797 26.595216-19.228199 33.507128a38.797726 38.797726 0 0 1-38.769282 0 38.314177 38.314177 0 0 1-19.199755-33.507128V128.124941z m77.197236-76.799019h128.45347a103.252014 103.252014 0 0 1 72.90218 29.866285A102.085807 102.085807 0 0 1 1080.875078 153.553949v768.160851a102.114251 102.114251 0 0 1-30.264502 72.390186A103.252014 103.252014 0 0 1 977.73684 1023.999716H103.138238a103.195126 103.195126 0 0 1-72.873736-29.866285A102.085807 102.085807 0 0 1 0 921.771688V153.582393a102.114251 102.114251 0 0 1 30.264502-72.390186 103.252014 103.252014 0 0 1 72.873736-29.866285h128.481914V38.69675A38.342621 38.342621 0 0 1 250.819906 5.189623a38.797726 38.797726 0 0 1 38.769283 0c11.974958 6.940356 19.341975 19.711748 19.199754 33.507127v12.629172h463.240303V38.69675a38.342621 38.342621 0 0 1 19.228199-33.507127 38.797726 38.797726 0 0 1 38.769282 0c11.974958 6.940356 19.341975 19.711748 19.199755 33.507127v12.629172z m154.422916 383.938205H77.197236v486.479117a25.599673 25.599673 0 0 0 25.941002 25.457453h874.598602a25.770337 25.770337 0 0 0 25.941002-25.457453V435.264127zM270.218769 563.262492h154.394472c21.247729 0.113776 38.399509 17.265557 38.399509 38.399509 0 21.105508-17.151781 38.285733-38.399509 38.399509H270.218769a38.513286 38.513286 0 0 1-38.399509-38.399509c0-21.133952 17.151781-38.285733 38.399509-38.399509z m0 179.169266h154.394472a38.513286 38.513286 0 0 1 38.314177 38.399509c0 21.077064-17.066449 38.228845-38.314177 38.399509H270.218769a38.513286 38.513286 0 0 1-38.314177-38.399509c0-21.105508 17.094893-38.228845 38.314177-38.399509z m386.014624-179.169266h154.451359c21.219284 0.113776 38.371065 17.265557 38.371066 38.399509 0 21.105508-17.151781 38.285733-38.39951 38.399509h-154.422915a38.484842 38.484842 0 0 1-38.39951-38.399509c0-21.133952 17.180225-38.285733 38.39951-38.399509z" fill="#9AC3FF" p-id="5061"></path></svg>